<svg width="130" height="130" viewBox="0 0 130 130" fill="none" xmlns="http://www.w3.org/2000/svg">
<g filter="url(#filter0_d_591_315)">
<rect x="15" y="14" width="100" height="100" rx="10" fill="white"/>
<path d="M70.275 54H73.6576L86.6105 73.8831H83.2004L70.275 54ZM70 73.8831L76.9027 63.0753L78.1953 65.6604L73.3001 73.8831H70ZM78.2778 62.1127L83.1179 54H86.3355L79.7078 64.3403L78.2778 62.1127Z" fill="#797979"/>
<path d="M52.856 78.16C51.6187 78.16 50.2213 78.0533 48.664 77.84C47.8107 77.7333 47.224 77.5093 46.904 77.168C46.584 76.8267 46.4453 76.272 46.488 75.504C46.6373 73.392 46.9893 70.7893 47.544 67.696C48.0987 64.5813 48.7707 61.584 49.56 58.704C49.7093 58.1707 50.008 57.7973 50.456 57.584C50.904 57.3707 51.4907 57.264 52.216 57.264C53.5173 57.264 54.168 57.6267 54.168 58.352C54.168 58.6507 54.104 58.992 53.976 59.376C53.4213 61.0827 52.8667 63.376 52.312 66.256C51.7573 69.1147 51.3627 71.8453 51.128 74.448C51.768 74.512 52.4933 74.544 53.304 74.544C57.0373 74.544 59.8213 73.4133 61.656 71.152C63.512 68.8907 64.44 65.872 64.44 62.096C64.44 59.5573 63.7147 57.5947 62.264 56.208C60.8133 54.8213 58.7653 54.128 56.12 54.128C54.4133 54.128 52.7173 54.3947 51.032 54.928C49.368 55.4613 47.864 56.1653 46.52 57.04C46.2427 57.232 45.944 57.328 45.624 57.328C45.2613 57.328 44.9733 57.1787 44.76 56.88C44.5467 56.56 44.44 56.176 44.44 55.728C44.44 55.216 44.5253 54.8 44.696 54.48C44.8667 54.1387 45.1547 53.8293 45.56 53.552C47.032 52.5493 48.76 51.792 50.744 51.28C52.728 50.7467 54.6373 50.48 56.472 50.48C59.0747 50.48 61.3253 50.9387 63.224 51.856C65.1227 52.752 66.584 54.0747 67.608 55.824C68.632 57.5733 69.144 59.6853 69.144 62.16C69.144 65.3813 68.504 68.1973 67.224 70.608C65.944 72.9973 64.0773 74.8533 61.624 76.176C59.1707 77.4987 56.248 78.16 52.856 78.16Z" fill="#0C2551"/>
</g>
<defs>
<filter id="filter0_d_591_315" x="0" y="0" width="130" height="130" filterUnits="userSpaceOnUse" color-interpolation-filters="sRGB">
<feFlood flood-opacity="0" result="BackgroundImageFix"/>
<feColorMatrix in="SourceAlpha" type="matrix" values="0 0 0 0 0 0 0 0 0 0 0 0 0 0 0 0 0 0 127 0" result="hardAlpha"/>
<feOffset dy="1"/>
<feGaussianBlur stdDeviation="7.5"/>
<feComposite in2="hardAlpha" operator="out"/>
<feColorMatrix type="matrix" values="0 0 0 0 0 0 0 0 0 0 0 0 0 0 0 0 0 0 0.15 0"/>
<feBlend mode="normal" in2="BackgroundImageFix" result="effect1_dropShadow_591_315"/>
<feBlend mode="normal" in="SourceGraphic" in2="effect1_dropShadow_591_315" result="shape"/>
</filter>
</defs>
</svg>
