<svg width="25" height="24" viewBox="0 0 25 24" fill="none" xmlns="http://www.w3.org/2000/svg">
<path d="M22 6V18C22 18.3978 21.842 18.7794 21.5607 19.0607C21.2794 19.342 20.8979 19.5 20.5 19.5H7.9844L4.9769 22.1353C4.97328 22.1392 4.96919 22.1427 4.96471 22.1456C4.69537 22.3744 4.35344 22.5 4.00003 22.5C3.77997 22.4996 3.56268 22.451 3.36346 22.3575C3.10434 22.2381 2.88511 22.0465 2.73198 21.8058C2.57886 21.5651 2.49833 21.2853 2.50003 21V6C2.50003 5.60218 2.65806 5.22064 2.93937 4.93934C3.22067 4.65804 3.6022 4.5 4.00003 4.5H20.5C20.8979 4.5 21.2794 4.65804 21.5607 4.93934C21.842 5.22064 22 5.60218 22 6Z" fill="#B3B3B3"/>
</svg>
