<svg width="25" height="24" viewBox="0 0 25 24" fill="none" xmlns="http://www.w3.org/2000/svg">
<path d="M14.484 21.816C17.0985 19.515 21.75 14.814 21.75 10.5C21.75 8.11305 20.8018 5.82387 19.114 4.13604C17.4261 2.44821 15.1369 1.5 12.75 1.5C10.3631 1.5 8.07387 2.44821 6.38604 4.13604C4.69821 5.82387 3.75 8.11305 3.75 10.5C3.75 14.814 8.4 19.515 11.016 21.816C11.4932 22.2419 12.1104 22.4773 12.75 22.4773C13.3896 22.4773 14.0068 22.2419 14.484 21.816ZM9.75 10.5C9.75 9.70435 10.0661 8.94129 10.6287 8.37868C11.1913 7.81607 11.9544 7.5 12.75 7.5C13.5456 7.5 14.3087 7.81607 14.8713 8.37868C15.4339 8.94129 15.75 9.70435 15.75 10.5C15.75 11.2956 15.4339 12.0587 14.8713 12.6213C14.3087 13.1839 13.5456 13.5 12.75 13.5C11.9544 13.5 11.1913 13.1839 10.6287 12.6213C10.0661 12.0587 9.75 11.2956 9.75 10.5Z" fill="#B3B3B3"/>
</svg>
