<svg width="13" height="11" viewBox="0 0 13 11" fill="none" xmlns="http://www.w3.org/2000/svg">
<path d="M8.85938 0.292908C7.73008 0.292908 6.74133 0.778533 6.125 1.59939C5.50867 0.778533 4.51992 0.292908 3.39062 0.292908C2.49169 0.293921 1.62986 0.651472 0.99421 1.28712C0.358564 1.92276 0.00101322 2.78459 0 3.68353C0 7.51166 5.67602 10.6103 5.91773 10.7382C5.98144 10.7725 6.05266 10.7904 6.125 10.7904C6.19734 10.7904 6.26856 10.7725 6.33227 10.7382C6.57398 10.6103 12.25 7.51166 12.25 3.68353C12.249 2.78459 11.8914 1.92276 11.2558 1.28712C10.6201 0.651472 9.75831 0.293921 8.85938 0.292908ZM6.125 9.85228C5.12641 9.27041 0.875 6.6197 0.875 3.68353C0.875868 3.01661 1.14119 2.37726 1.61277 1.90568C2.08435 1.43409 2.72371 1.16878 3.39062 1.16791C4.4543 1.16791 5.34734 1.73447 5.72031 2.64447C5.75327 2.72471 5.80935 2.79334 5.8814 2.84165C5.95346 2.88995 6.03825 2.91573 6.125 2.91573C6.21175 2.91573 6.29654 2.88995 6.3686 2.84165C6.44065 2.79334 6.49673 2.72471 6.52969 2.64447C6.90266 1.73283 7.7957 1.16791 8.85938 1.16791C9.52629 1.16878 10.1656 1.43409 10.6372 1.90568C11.1088 2.37726 11.3741 3.01661 11.375 3.68353C11.375 6.61533 7.1225 9.26986 6.125 9.85228Z" fill="black"/>
</svg>
