<svg width="10" height="12" viewBox="0 0 10 12" fill="none" xmlns="http://www.w3.org/2000/svg">
<path d="M8.543 11.0833C8.13855 11.0833 7.79419 10.9414 7.50991 10.6575C7.22564 10.3744 7.0835 10.0302 7.0835 9.625C7.0835 9.54722 7.0903 9.46692 7.10391 9.38408C7.11714 9.30086 7.13716 9.22269 7.164 9.14958L2.64783 6.48842C2.50511 6.64942 2.33905 6.77483 2.14966 6.86467C1.96066 6.95489 1.75805 7 1.54183 7C1.13661 7 0.792441 6.85825 0.509329 6.57475C0.225441 6.29164 0.0834961 5.94767 0.0834961 5.54283C0.0834961 5.13839 0.225441 4.79403 0.509329 4.50975C0.792052 4.22547 1.13622 4.08333 1.54183 4.08333C1.75805 4.08333 1.96066 4.12844 2.14966 4.21867C2.33905 4.3085 2.50511 4.43392 2.64783 4.59492L7.164 1.93375C7.13716 1.86064 7.11714 1.78247 7.10391 1.69925C7.0903 1.61642 7.0835 1.53611 7.0835 1.45833C7.0835 1.05311 7.22525 0.708944 7.50875 0.425833C7.79186 0.141944 8.13583 0 8.54066 0C8.94511 0 9.28947 0.14175 9.57375 0.42525C9.85802 0.708361 10.0002 1.05233 10.0002 1.45717C10.0002 1.86161 9.85822 2.20597 9.57433 2.49025C9.29122 2.77453 8.94705 2.91667 8.54183 2.91667C8.32561 2.91667 8.123 2.87156 7.934 2.78133C7.74461 2.6915 7.57855 2.56608 7.43583 2.40508L2.91966 5.06625C2.9465 5.13936 2.96652 5.21714 2.97975 5.29958C2.99336 5.38242 3.00016 5.46233 3.00016 5.53933C3.00016 5.61633 2.99336 5.69703 2.97975 5.78142C2.96652 5.86542 2.9465 5.94397 2.91966 6.01708L7.43583 8.67825C7.57855 8.51725 7.74461 8.39183 7.934 8.302C8.123 8.21178 8.32561 8.16667 8.54183 8.16667C8.94705 8.16667 9.29122 8.30842 9.57433 8.59192C9.85822 8.87503 10.0002 9.219 10.0002 9.62383C10.0002 10.0283 9.85841 10.3726 9.57491 10.6569C9.2918 10.9412 8.94783 11.0833 8.543 11.0833Z" fill="black"/>
</svg>
