<svg width="390" height="397" viewBox="0 0 390 397" fill="none" xmlns="http://www.w3.org/2000/svg">
<g clip-path="url(#clip0_591_160)">
<path d="M395.421 396.092C395.421 396.595 395.016 397 394.513 397H-4.09181C-4.59549 397 -5 396.595 -5 396.092C-5 395.588 -4.59549 395.184 -4.09181 395.184H394.513C395.016 395.184 395.421 395.588 395.421 396.092Z" fill="#3F3D56"/>
<path d="M271.687 351.874L276.266 370.953L262.529 374.769L259.476 354.163L271.687 351.874Z" fill="#FFF1F1"/>
<path d="M293.819 290.056L279.319 302.267L270.161 316.767L283.135 325.162L305.267 299.977L293.819 290.056Z" fill="#FFF1F1"/>
<path d="M289.24 164.13L301.451 205.342C301.451 205.342 355.637 252.659 350.295 262.581C344.953 272.502 309.083 299.977 309.083 299.977C309.083 299.977 311.745 308.763 303.927 305.133C296.109 301.503 287.714 291.582 287.714 291.582C287.714 291.582 287.714 283.95 291.53 285.476C295.345 287.003 312.899 266.397 312.899 266.397L274.739 231.29V348.68C274.739 348.68 283.898 356.687 274.739 357.333C265.581 357.979 257.186 359.505 257.186 359.505C257.186 359.505 246.502 355.689 250.317 351.874L238.87 289.292L230.475 212.974L236.58 173.288L289.24 164.13Z" fill="#0C2551"/>
<path d="M264.818 368.664C264.818 368.664 265.581 365.611 268.634 365.611H277.958C277.958 365.611 280.845 378.585 280.082 378.585C279.319 378.585 292.293 395.375 278.555 396.138C264.818 396.902 261.002 395.375 261.002 395.375L259.476 389.351C259.476 389.351 257.186 385.454 257.949 382.401C258.713 379.348 264.818 368.664 264.818 368.664Z" fill="#0C2551"/>
<path d="M283.898 319.057C283.898 319.057 292.663 318.918 290.57 321.277C288.477 323.636 284.661 327.452 284.661 327.452C284.661 327.452 275.584 345.768 271.346 342.334C267.108 338.899 260.239 300.74 262.529 296.161C264.818 291.582 267.871 291.582 267.871 291.582L281.951 300.05C281.951 300.05 273.213 321.346 283.898 319.057Z" fill="#0C2551"/>
<path d="M262.529 99.2591L265.581 80.1795L244.975 71.7844L241.923 100.786L262.529 99.2591Z" fill="#FFF1F1"/>
<path opacity="0.1" d="M262.529 99.2591L265.581 80.1795L244.975 71.7844L241.923 100.786L262.529 99.2591Z" fill="#0C2551"/>
<path d="M240.778 96.5879L265.2 90.4824L291.148 98.8775C291.148 98.8775 302.596 130.931 298.78 142.379C294.964 153.827 294.964 176.188 294.964 176.188C294.964 176.188 294.583 166.419 272.45 173.288C250.318 180.157 234.291 179.394 234.291 179.394L233.528 151.919L223.94 127.515C219.843 117.084 224.259 105.241 234.187 100.04L240.778 96.5879Z" fill="#E8EEF8"/>
<path d="M352.885 186.493C356.332 190.621 356.995 195.746 354.367 197.939C351.739 200.131 346.816 198.562 343.37 194.431C341.97 192.8 340.982 190.858 340.487 188.766L326.106 171.089L333.111 165.421L347.826 182.642C349.796 183.503 351.531 184.824 352.885 186.493Z" fill="#FFF1F1"/>
<path d="M290.039 99.1211L285.034 118.946L309.53 158.157L334.537 183.29L342.642 176.566L317.422 145.186L298.306 104.754L290.039 99.1211Z" fill="#E8EEF8"/>
<path d="M348.353 79.9859C365.798 78.6967 378.617 59.7617 376.987 37.6934C375.356 15.625 359.892 -1.21988 342.448 0.0692748C325.003 1.35843 312.184 20.2934 313.814 42.3618C315.445 64.4301 330.909 81.275 348.353 79.9859Z" fill="#0C2551"/>
<path d="M347.69 79.986H346.164V232.194H347.69V79.986Z" fill="#0C2551"/>
<path d="M348.069 76.7718L348.253 82.1653L350.69 87.1582L340.521 86.6395L344.795 82.34L344.312 77.4394L348.069 76.7718Z" fill="#0C2551"/>
<path d="M257.321 86.3129C268.927 86.3129 278.335 76.9049 278.335 65.2996C278.335 53.6943 268.927 44.2864 257.321 44.2864C245.716 44.2864 236.308 53.6943 236.308 65.2996C236.308 76.9049 245.716 86.3129 257.321 86.3129Z" fill="#FFF1F1"/>
<path d="M255.645 37.0488C256.253 37.4037 257.067 36.8667 257.262 36.1902C257.457 35.5137 257.23 34.7954 257.005 34.1283L255.871 30.7703C255.067 28.3886 254.213 25.9238 252.472 24.1111C249.843 21.375 245.666 20.679 241.906 21.1833C237.077 21.8308 232.312 24.4457 230.067 28.7698C227.821 33.0938 228.777 39.1274 232.834 41.8252C227.052 48.4528 225.036 55.8391 225.355 64.629C225.673 73.4188 235.252 81.5083 241.498 87.7004C242.893 86.8548 244.161 82.8919 243.394 81.4522C242.627 80.0126 243.726 78.3447 242.776 77.0186C241.826 75.6925 241.031 77.804 241.992 76.4855C242.598 75.6535 240.232 73.7393 241.133 73.2414C245.491 70.8327 246.94 65.4013 249.677 61.2421C252.978 56.2252 258.628 52.8278 264.607 52.2642C267.9 51.9537 271.379 52.516 274.079 54.4281C276.778 56.3402 278.526 59.7571 277.9 63.0056C279.521 61.3594 280.328 58.9469 280.024 56.6565C279.719 54.3661 278.31 52.2481 276.315 51.0826C277.528 47.0711 276.489 42.4568 273.674 39.3527C270.858 36.2485 259.437 36.7772 255.327 37.5941" fill="#0C2551"/>
<path d="M255.006 52.3858C249.562 52.9735 245.631 57.6893 242.312 62.0443C240.399 64.5545 238.395 67.3265 238.443 70.4823C238.491 73.6728 240.624 76.4094 241.644 79.433C243.31 84.3752 241.686 90.2554 237.719 93.6418C241.639 94.3856 245.876 91.4467 246.553 87.5149C247.341 82.9379 243.871 78.5204 244.282 73.8943C244.644 69.8187 247.856 66.682 250.586 63.6347C253.317 60.5873 255.881 56.5436 254.625 52.6495" fill="#0C2551"/>
<path d="M234.966 179.011H78.002C60.2023 179.011 45.7727 193.441 45.7727 211.241V363.445C45.7727 381.245 60.2022 395.674 78.0019 395.674H234.966C252.765 395.674 267.195 381.245 267.195 363.445V211.241C267.195 193.441 252.765 179.011 234.966 179.011Z" fill="white"/>
<path d="M234.966 396.437H78.0023C59.8103 396.437 45.0098 381.637 45.0098 363.445V211.241C45.0098 193.049 59.8103 178.248 78.0023 178.248H234.966C253.158 178.248 267.958 193.049 267.958 211.241V363.445C267.958 381.637 253.158 396.437 234.966 396.437ZM78.0023 179.775C60.6517 179.775 46.5361 193.89 46.5361 211.241V363.445C46.5361 380.796 60.6517 394.911 78.0023 394.911H234.966C252.316 394.911 266.432 380.796 266.432 363.445V211.241C266.432 193.89 252.316 179.775 234.966 179.775H78.0023Z" fill="#3F3D56"/>
<path d="M218.404 193.984C220.414 193.984 222.043 192.355 222.043 190.345C222.043 188.335 220.414 186.705 218.404 186.705C216.393 186.705 214.764 188.335 214.764 190.345C214.764 192.355 216.393 193.984 218.404 193.984Z" fill="#3F3D56"/>
<path d="M228.413 193.984C230.423 193.984 232.052 192.355 232.052 190.345C232.052 188.335 230.423 186.705 228.413 186.705C226.402 186.705 224.773 188.335 224.773 190.345C224.773 192.355 226.402 193.984 228.413 193.984Z" fill="#3F3D56"/>
<path d="M238.422 193.984C240.432 193.984 242.061 192.355 242.061 190.345C242.061 188.335 240.432 186.705 238.422 186.705C236.412 186.705 234.782 188.335 234.782 190.345C234.782 192.355 236.412 193.984 238.422 193.984Z" fill="#3F3D56"/>
<path d="M72.8568 342.389C71.726 342.389 70.8062 343.308 70.8062 344.439C70.8062 344.991 71.0191 345.501 71.4056 345.877C71.7954 346.276 72.3061 346.49 72.8568 346.49H237.017C238.147 346.49 239.067 345.57 239.067 344.439C239.067 343.888 238.854 343.378 238.468 343.001C238.078 342.602 237.567 342.389 237.017 342.389H72.8568Z" fill="#E8EEF8"/>
<path d="M160.634 341.705V347.174H72.8567C72.1048 347.174 71.4213 346.873 70.9292 346.367C70.4233 345.875 70.1226 345.191 70.1226 344.44C70.1226 342.936 71.353 341.705 72.8567 341.705L160.634 341.705Z" fill="#0C2551"/>
<path d="M233.599 331.452H206.258C203.242 331.452 200.789 329 200.789 325.984C200.789 322.968 203.242 320.515 206.258 320.515H233.599C236.614 320.515 239.067 322.968 239.067 325.984C239.067 329 236.614 331.452 233.599 331.452Z" fill="#E8EEF8"/>
<path d="M130.881 335.36L111.768 271.14L110.305 271.575L129.351 335.57" fill="#0C2551"/>
<path d="M131.542 189.206C148.987 187.917 161.806 168.982 160.176 146.913C158.545 124.845 143.081 108 125.637 109.289C108.192 110.579 95.3726 129.514 97.0035 151.582C98.6343 173.65 114.098 190.495 131.542 189.206Z" fill="#0C2551"/>
<path d="M130.879 189.206H129.353V341.414H130.879V189.206Z" fill="#0C2551"/>
<path d="M112.627 269.279L114.34 274.396L118.1 278.487L108.206 280.89L111.077 275.55L109.216 270.99L112.627 269.279Z" fill="#0C2551"/>
<path d="M131.259 185.992L131.442 191.385L133.879 196.378L123.71 195.86L127.985 191.56L127.502 186.659L131.259 185.992Z" fill="#0C2551"/>
<path d="M113.141 270.621C129.478 264.371 136.313 242.55 128.407 221.882C120.501 201.214 100.847 189.526 84.5096 195.776C68.1721 202.025 61.3373 223.846 69.2436 244.514C77.1499 265.182 96.8033 276.87 113.141 270.621Z" fill="#0C2551"/>
<path d="M251.819 171.199C256.967 172.753 260.338 176.669 259.349 179.946C258.359 183.222 253.384 184.617 248.234 183.061C246.168 182.468 244.275 181.389 242.712 179.914L220.981 173.053L223.717 164.467L245.476 170.763C247.594 170.4 249.77 170.549 251.819 171.199Z" fill="#FFF1F1"/>
<path d="M214.066 114.904L236.962 98.1142L236.199 130.168L214.829 157.643L237.725 166.801L236.962 179.877C236.962 179.877 207.961 172.906 203.382 172.143C198.803 171.38 194.987 160.695 194.987 160.695L214.066 114.904Z" fill="#E8EEF8"/>
</g>
<defs>
<clipPath id="clip0_591_160">
<rect width="400.421" height="397" fill="white" transform="translate(-5)"/>
</clipPath>
</defs>
</svg>
