<svg width="361" height="32" viewBox="0 0 361 32" fill="none" xmlns="http://www.w3.org/2000/svg">
<path d="M1 15.1H360" stroke="black" stroke-opacity="0.5" stroke-width="0.8" stroke-linecap="round"/>
<rect width="41.0587" height="32" transform="translate(158.918)" fill="#FFFBFF"/>
<path d="M172.455 14.668C172.455 14.068 172.567 13.504 172.791 12.976C173.023 12.44 173.343 11.968 173.751 11.56C174.159 11.144 174.627 10.82 175.155 10.588C175.691 10.348 176.267 10.228 176.883 10.228C177.491 10.228 178.059 10.348 178.587 10.588C179.123 10.82 179.595 11.144 180.003 11.56C180.419 11.968 180.743 12.44 180.975 12.976C181.207 13.504 181.323 14.068 181.323 14.668C181.323 15.284 181.207 15.86 180.975 16.396C180.743 16.932 180.419 17.404 180.003 17.812C179.595 18.212 179.123 18.528 178.587 18.76C178.059 18.984 177.491 19.096 176.883 19.096C176.267 19.096 175.691 18.984 175.155 18.76C174.627 18.536 174.159 18.224 173.751 17.824C173.343 17.424 173.023 16.956 172.791 16.42C172.567 15.884 172.455 15.3 172.455 14.668ZM173.655 14.68C173.655 15.136 173.739 15.564 173.907 15.964C174.075 16.356 174.307 16.704 174.603 17.008C174.899 17.312 175.243 17.552 175.635 17.728C176.027 17.896 176.451 17.98 176.907 17.98C177.355 17.98 177.775 17.896 178.167 17.728C178.559 17.552 178.899 17.312 179.187 17.008C179.475 16.704 179.703 16.356 179.871 15.964C180.039 15.564 180.123 15.132 180.123 14.668C180.123 14.212 180.039 13.784 179.871 13.384C179.703 12.976 179.471 12.62 179.175 12.316C178.879 12.012 178.535 11.776 178.143 11.608C177.751 11.432 177.331 11.344 176.883 11.344C176.427 11.344 176.003 11.432 175.611 11.608C175.219 11.784 174.875 12.024 174.579 12.328C174.283 12.632 174.055 12.988 173.895 13.396C173.735 13.796 173.655 14.224 173.655 14.68ZM184.604 14.032L184.712 15.472L184.652 15.28C184.78 14.976 184.964 14.72 185.204 14.512C185.452 14.296 185.708 14.132 185.972 14.02C186.244 13.9 186.48 13.84 186.68 13.84L186.62 14.944C186.244 14.92 185.912 14.992 185.624 15.16C185.344 15.328 185.12 15.552 184.952 15.832C184.792 16.112 184.712 16.412 184.712 16.732V19H183.608V14.032H184.604Z" fill="black" fill-opacity="0.6"/>
</svg>
