<svg width="312" height="244" viewBox="0 0 312 244" fill="none" xmlns="http://www.w3.org/2000/svg">
<g clip-path="url(#clip0_619_19)">
<path fill-rule="evenodd" clip-rule="evenodd" d="M284.046 -78.9909C340.599 -47.4497 425.007 -41.3707 448.364 9.97477C471.732 61.3413 400.531 84.629 376.961 125.256C353.98 164.866 369.247 235.855 314.056 241.471C258.812 247.093 211.253 181.085 157.738 147.564C111.076 118.337 52.9548 102.589 25.073 60.4616C-6.4712 12.8006 -11.2899 -39.61 6.14852 -81.4768C25.0841 -126.938 60.3005 -172.635 121.933 -172.084C180.894 -171.556 227.467 -110.546 284.046 -78.9909Z" fill="#0962FF"/>
<path fill-rule="evenodd" clip-rule="evenodd" d="M217.516 -98.8241C245.258 -118.857 281.475 -125.882 314.554 -117.125C345.853 -108.839 364.455 -80.4621 384.096 -54.7232C405.616 -26.524 433.113 0.606556 431.436 36.0391C429.58 75.2594 409.964 116.229 375.146 134.377C342.122 151.59 304.956 128.645 268.518 120.958C233.182 113.505 189.751 120.217 168.748 90.8387C147.582 61.2327 162.872 21.1085 171.935 -14.1387C180.234 -46.4149 190.498 -79.3141 217.516 -98.8241Z" fill="#0C2551"/>
</g>
<defs>
<clipPath id="clip0_619_19">
<rect width="312" height="244" fill="white"/>
</clipPath>
</defs>
</svg>
