<svg width="244" height="236" viewBox="0 0 244 236" fill="none" xmlns="http://www.w3.org/2000/svg">
<g clip-path="url(#clip0_680_22)">
<path fill-rule="evenodd" clip-rule="evenodd" d="M-81.2565 -60.9909C-137.81 -29.4497 -222.217 -23.3707 -245.575 27.9748C-268.943 79.3413 -197.742 102.629 -174.172 143.256C-151.191 182.866 -166.458 253.855 -111.267 259.471C-56.0229 265.093 -8.46414 199.085 45.0509 165.564C91.7126 136.337 149.834 120.589 177.716 78.4616C209.26 30.8006 214.079 -21.61 196.641 -63.4768C177.705 -108.938 142.489 -154.635 80.8561 -154.084C21.8954 -153.556 -24.6775 -92.5463 -81.2565 -60.9909Z" fill="#0962FF"/>
<path fill-rule="evenodd" clip-rule="evenodd" d="M-5.84817 -88.0875C-35.8306 -104.579 -72.635 -107.125 -104.395 -94.3894C-134.447 -82.3394 -149.44 -51.9017 -165.788 -23.9549C-183.699 6.66331 -207.675 36.9517 -201.679 71.9135C-195.042 110.613 -170.565 148.877 -133.79 162.633C-98.9096 175.681 -64.8271 148.364 -29.6015 136.281C4.55823 124.564 48.484 125.917 65.7381 94.1917C83.1262 62.2205 63.0467 24.2661 49.743 -9.60885C37.5607 -40.6285 23.3523 -72.0264 -5.84817 -88.0875Z" fill="#0C2551"/>
</g>
<defs>
<clipPath id="clip0_680_22">
<rect width="244" height="236" fill="white" transform="matrix(-1 0 0 1 244 0)"/>
</clipPath>
</defs>
</svg>
