<svg width="18" height="18" viewBox="0 0 18 18" fill="none" xmlns="http://www.w3.org/2000/svg">
<path fill-rule="evenodd" clip-rule="evenodd" d="M2.25536 7.04863C4.04611 10.9471 7.22787 14.0365 11.1774 15.7116L11.1894 15.7166L11.9534 16.0566C12.4253 16.2671 12.9552 16.3087 13.4542 16.1745C13.9531 16.0403 14.3907 15.7384 14.6934 15.3196L15.9674 13.5566C16.0048 13.5047 16.0209 13.4404 16.0124 13.377C16.0038 13.3135 15.9712 13.2558 15.9214 13.2156L13.6974 11.4206C13.6711 11.3995 13.6409 11.3838 13.6084 11.3747C13.576 11.3655 13.542 11.363 13.5085 11.3673C13.4751 11.3716 13.4429 11.3826 13.4138 11.3997C13.3847 11.4167 13.3594 11.4395 13.3394 11.4666L12.4734 12.6346C12.3713 12.7724 12.2252 12.8711 12.0592 12.9142C11.8933 12.9574 11.7176 12.9423 11.5614 12.8716C8.60241 11.5312 6.2318 9.16058 4.89136 6.20163C4.82067 6.04543 4.80563 5.86971 4.84875 5.70377C4.89188 5.53782 4.99056 5.39166 5.12836 5.28963L6.29536 4.42263C6.32248 4.40259 6.34526 4.37727 6.36234 4.3482C6.37941 4.31912 6.39043 4.28689 6.39473 4.25345C6.39903 4.22 6.39651 4.18603 6.38734 4.15358C6.37817 4.12114 6.36253 4.09088 6.34136 4.06463L4.54736 1.84063C4.50722 1.79076 4.44948 1.75819 4.38603 1.74963C4.32259 1.74108 4.25828 1.75718 4.20636 1.79463L2.43336 3.07463C2.01176 3.37874 1.70846 3.81945 1.57502 4.32187C1.44158 4.82428 1.48622 5.35741 1.70136 5.83063L2.25536 7.04763V7.04863ZM10.5854 17.0896C6.29446 15.2676 2.83796 11.9099 0.89236 7.67363L0.890359 7.67163L0.336359 6.45163C-0.0222207 5.66307 -0.0967321 4.77468 0.125485 3.9374C0.347701 3.10012 0.852939 2.3656 1.55536 1.85863L3.32836 0.578633C3.69149 0.316553 4.14127 0.203658 4.58512 0.263185C5.02898 0.322713 5.43312 0.550133 5.71436 0.898633L7.50936 3.12363C7.65749 3.30721 7.76698 3.51883 7.83125 3.74579C7.89552 3.97275 7.91324 4.21036 7.88335 4.44435C7.85346 4.67833 7.77657 4.90386 7.65731 5.10737C7.53805 5.31089 7.37888 5.48819 7.18936 5.62863L6.51936 6.12463C7.65214 8.32097 9.44102 10.1099 11.6374 11.2426L12.1344 10.5726C12.2748 10.3833 12.452 10.2242 12.6555 10.105C12.8589 9.98588 13.0843 9.90904 13.3182 9.87916C13.552 9.84927 13.7895 9.86695 14.0164 9.93113C14.2433 9.99531 14.4548 10.1047 14.6384 10.2526L16.8634 12.0476C17.2121 12.3289 17.4397 12.7332 17.4993 13.1773C17.5588 13.6214 17.4457 14.0714 17.1834 14.4346L15.9094 16.1986C15.4051 16.8966 14.6759 17.3997 13.8445 17.6235C13.013 17.8473 12.1299 17.7781 11.3434 17.4276L10.5854 17.0896Z" fill="black"/>
</svg>
