<svg width="22" height="22" viewBox="0 0 22 22" fill="none" xmlns="http://www.w3.org/2000/svg">
<path d="M20.3729 0H1.56714C1.15151 0 0.752902 0.231785 0.459005 0.644365C0.165109 1.05695 0 1.61652 0 2.2V19.8C0 20.3835 0.165109 20.9431 0.459005 21.3556C0.752902 21.7682 1.15151 22 1.56714 22H20.3729C20.7885 22 21.1871 21.7682 21.481 21.3556C21.7749 20.9431 21.94 20.3835 21.94 19.8V2.2C21.94 1.61652 21.7749 1.05695 21.481 0.644365C21.1871 0.231785 20.7885 0 20.3729 0ZM20.3729 2.2V5.5H1.56714V2.2H20.3729ZM20.3729 19.8H1.56714V7.7H20.3729V19.8ZM18.8057 16.5C18.8057 16.7917 18.7232 17.0715 18.5762 17.2778C18.4293 17.4841 18.23 17.6 18.0221 17.6H14.8879C14.68 17.6 14.4807 17.4841 14.3338 17.2778C14.1868 17.0715 14.1043 16.7917 14.1043 16.5C14.1043 16.2083 14.1868 15.9285 14.3338 15.7222C14.4807 15.5159 14.68 15.4 14.8879 15.4H18.0221C18.23 15.4 18.4293 15.5159 18.5762 15.7222C18.7232 15.9285 18.8057 16.2083 18.8057 16.5ZM12.5371 16.5C12.5371 16.7917 12.4546 17.0715 12.3076 17.2778C12.1607 17.4841 11.9614 17.6 11.7536 17.6H10.1864C9.97861 17.6 9.77931 17.4841 9.63236 17.2778C9.48541 17.0715 9.40286 16.7917 9.40286 16.5C9.40286 16.2083 9.48541 15.9285 9.63236 15.7222C9.77931 15.5159 9.97861 15.4 10.1864 15.4H11.7536C11.9614 15.4 12.1607 15.5159 12.3076 15.7222C12.4546 15.9285 12.5371 16.2083 12.5371 16.5Z" fill="#FFFEFE"/>
<path d="M20.8729 2.2V1.7H20.3729H1.56714H1.06714V2.2V5.5V6H1.56714H20.3729H20.8729V5.5V2.2ZM20.3729 20.3H20.8729V19.8V7.7V7.2H20.3729H1.56714H1.06714V7.7V19.8V20.3H1.56714H20.3729ZM1.56714 0.5H20.3729C20.5906 0.5 20.8505 0.621052 21.0738 0.934459C21.2985 1.24993 21.44 1.70417 21.44 2.2V19.8C21.44 20.2958 21.2985 20.7501 21.0738 21.0655C20.8505 21.3789 20.5906 21.5 20.3729 21.5H1.56714C1.3494 21.5 1.0895 21.3789 0.866247 21.0655C0.641522 20.7501 0.5 20.2958 0.5 19.8V2.2C0.5 1.70417 0.641523 1.24993 0.866247 0.934459C1.0895 0.621052 1.3494 0.5 1.56714 0.5ZM18.3057 16.5C18.3057 16.7041 18.2467 16.8785 18.169 16.9877C18.0927 17.0948 18.0321 17.1 18.0221 17.1H14.8879C14.8779 17.1 14.8173 17.0948 14.741 16.9877C14.6633 16.8785 14.6043 16.7041 14.6043 16.5C14.6043 16.2959 14.6633 16.1215 14.741 16.0123C14.8173 15.9052 14.8779 15.9 14.8879 15.9H18.0221C18.0321 15.9 18.0927 15.9052 18.169 16.0123C18.2467 16.1215 18.3057 16.2959 18.3057 16.5ZM12.0371 16.5C12.0371 16.7041 11.9782 16.8785 11.9004 16.9877C11.8241 17.0948 11.7635 17.1 11.7536 17.1H10.1864C10.1765 17.1 10.1159 17.0948 10.0396 16.9877C9.96183 16.8785 9.90286 16.7041 9.90286 16.5C9.90286 16.2959 9.96183 16.1215 10.0396 16.0123C10.1159 15.9052 10.1765 15.9 10.1864 15.9H11.7536C11.7635 15.9 11.8241 15.9052 11.9004 16.0123C11.9782 16.1215 12.0371 16.2959 12.0371 16.5Z" stroke="black" stroke-opacity="0.8"/>
</svg>
