<svg width="18" height="20" viewBox="0 0 18 20" fill="none" xmlns="http://www.w3.org/2000/svg">
<path d="M16 8H17C17.2652 8 17.5196 8.10536 17.7071 8.29289C17.8946 8.48043 18 8.73478 18 9V19C18 19.2652 17.8946 19.5196 17.7071 19.7071C17.5196 19.8946 17.2652 20 17 20H1C0.734784 20 0.48043 19.8946 0.292893 19.7071C0.105357 19.5196 0 19.2652 0 19V9C0 8.73478 0.105357 8.48043 0.292893 8.29289C0.48043 8.10536 0.734784 8 1 8H2V7C2 5.14348 2.7375 3.36301 4.05025 2.05025C5.36301 0.737498 7.14348 0 9 0C10.8565 0 12.637 0.737498 13.9497 2.05025C15.2625 3.36301 16 5.14348 16 7V8ZM2 10V18H16V10H2ZM8 12H10V16H8V12ZM14 8V7C14 5.67392 13.4732 4.40215 12.5355 3.46447C11.5979 2.52678 10.3261 2 9 2C7.67392 2 6.40215 2.52678 5.46447 3.46447C4.52678 4.40215 4 5.67392 4 7V8H14Z" fill="white"/>
<path d="M15.5 8V8.5H16H17C17.1326 8.5 17.2598 8.55268 17.3536 8.64645C17.4473 8.74021 17.5 8.86739 17.5 9V19C17.5 19.1326 17.4473 19.2598 17.3536 19.3536C17.2598 19.4473 17.1326 19.5 17 19.5H1C0.867391 19.5 0.740214 19.4473 0.646447 19.3536C0.552679 19.2598 0.5 19.1326 0.5 19V9C0.5 8.86739 0.552678 8.74022 0.646447 8.64645C0.740215 8.55268 0.867392 8.5 1 8.5H2H2.5V8V7C2.5 5.27609 3.18482 3.62279 4.40381 2.40381C5.62279 1.18482 7.27609 0.5 9 0.5C10.7239 0.5 12.3772 1.18482 13.5962 2.40381C14.8152 3.62279 15.5 5.27609 15.5 7V8ZM2 9.5H1.5V10V18V18.5H2H16H16.5V18V10V9.5H16H2ZM14 8.5H14.5V8V7C14.5 5.54131 13.9205 4.14236 12.8891 3.11091C11.8576 2.07946 10.4587 1.5 9 1.5C7.54131 1.5 6.14236 2.07946 5.11091 3.11091C4.07946 4.14236 3.5 5.54131 3.5 7V8V8.5H4H14ZM9.5 12.5V15.5H8.5V12.5H9.5Z" stroke="black" stroke-opacity="0.85"/>
</svg>
