<svg width="22" height="22" viewBox="0 0 22 22" fill="none" xmlns="http://www.w3.org/2000/svg">
<mask id="path-1-inside-1_956_264" fill="white">
<path fill-rule="evenodd" clip-rule="evenodd" d="M21.94 19.134C21.94 20.72 20.5358 22 18.796 22H3.144C1.40416 22 0 20.72 0 19.134V4.866C0 3.28 1.40416 2 3.144 2H6.582V1.01C6.58377 0.774697 6.67474 0.547188 6.83948 0.366031C7.00422 0.184873 7.2326 0.0612105 7.48593 0.0159998L7.679 0C8.28454 0 8.776 0.428 8.776 1.01V2H13.164V1.01C13.1658 0.774697 13.2567 0.547188 13.4215 0.366031C13.5862 0.184873 13.8146 0.0612105 14.0679 0.0159998L14.261 0C14.8665 0 15.358 0.428 15.358 1.01V2H18.796C20.5358 2 21.94 3.28 21.94 4.866V19.134ZM2.194 8V18.66C2.194 19.4 2.8522 20 3.66398 20H18.276C19.0878 20 19.746 19.4 19.746 18.66V8H2.194ZM5.485 16C6.02253 16 6.4723 16.366 6.56445 16.824L6.582 17C6.582 17.49 6.1805 17.9 5.67807 17.984L5.485 18C5.19494 17.9974 4.91757 17.8912 4.71246 17.7042C4.50735 17.5173 4.39086 17.2644 4.388 17C4.388 16.51 4.7895 16.1 5.29193 16.016L5.485 16ZM10.97 16C11.5075 16 11.9573 16.366 12.0494 16.824L12.067 17C12.067 17.49 11.6655 17.9 11.1631 17.984L10.97 18C10.6799 17.9974 10.4026 17.8912 10.1975 17.7042C9.99235 17.5173 9.87586 17.2644 9.873 17C9.873 16.51 10.2745 16.1 10.7769 16.016L10.97 16ZM16.455 16C16.9925 16 17.4423 16.366 17.5344 16.824L17.552 17C17.552 17.49 17.1505 17.9 16.6481 17.984L16.455 18C16.1649 17.9974 15.8876 17.8912 15.6825 17.7042C15.4774 17.5173 15.3609 17.2644 15.358 17C15.358 16.51 15.7595 16.1 16.2619 16.016L16.455 16ZM5.485 13C6.02253 13 6.4723 13.366 6.56445 13.824L6.582 14C6.582 14.49 6.1805 14.9 5.67807 14.984L5.485 15C5.19494 14.9974 4.91757 14.8912 4.71246 14.7042C4.50735 14.5173 4.39086 14.2644 4.388 14C4.388 13.51 4.7895 13.1 5.29193 13.016L5.485 13ZM10.97 13C11.5075 13 11.9573 13.366 12.0494 13.824L12.067 14C12.067 14.49 11.6655 14.9 11.1631 14.984L10.97 15C10.6799 14.9974 10.4026 14.8912 10.1975 14.7042C9.99235 14.5173 9.87586 14.2644 9.873 14C9.873 13.51 10.2745 13.1 10.7769 13.016L10.97 13ZM16.455 13C16.9925 13 17.4423 13.366 17.5344 13.824L17.552 14C17.552 14.49 17.1505 14.9 16.6481 14.984L16.455 15C16.1649 14.9974 15.8876 14.8912 15.6825 14.7042C15.4774 14.5173 15.3609 14.2644 15.358 14C15.358 13.51 15.7595 13.1 16.2619 13.016L16.455 13ZM5.485 10C6.02253 10 6.4723 10.366 6.56445 10.824L6.582 11C6.582 11.49 6.1805 11.9 5.67807 11.984L5.485 12C5.19494 11.9974 4.91757 11.8912 4.71246 11.7042C4.50735 11.5173 4.39086 11.2644 4.388 11C4.388 10.51 4.7895 10.1 5.29193 10.016L5.485 10ZM10.97 10C11.5075 10 11.9573 10.366 12.0494 10.824L12.067 11C12.067 11.49 11.6655 11.9 11.1631 11.984L10.97 12C10.6799 11.9974 10.4026 11.8912 10.1975 11.7042C9.99235 11.5173 9.87586 11.2644 9.873 11C9.873 10.51 10.2745 10.1 10.7769 10.016L10.97 10ZM16.455 10C16.9925 10 17.4423 10.366 17.5344 10.824L17.552 11C17.552 11.49 17.1505 11.9 16.6481 11.984L16.455 12C16.1649 11.9974 15.8876 11.8912 15.6825 11.7042C15.4774 11.5173 15.3609 11.2644 15.358 11C15.358 10.51 15.7595 10.1 16.2619 10.016L16.455 10ZM2.194 6H19.746V5.34C19.746 4.6 19.0878 4 18.276 4H3.66398C2.8522 4 2.194 4.6 2.194 5.34V6Z"/>
</mask>
<path fill-rule="evenodd" clip-rule="evenodd" d="M21.94 19.134C21.94 20.72 20.5358 22 18.796 22H3.144C1.40416 22 0 20.72 0 19.134V4.866C0 3.28 1.40416 2 3.144 2H6.582V1.01C6.58377 0.774697 6.67474 0.547188 6.83948 0.366031C7.00422 0.184873 7.2326 0.0612105 7.48593 0.0159998L7.679 0C8.28454 0 8.776 0.428 8.776 1.01V2H13.164V1.01C13.1658 0.774697 13.2567 0.547188 13.4215 0.366031C13.5862 0.184873 13.8146 0.0612105 14.0679 0.0159998L14.261 0C14.8665 0 15.358 0.428 15.358 1.01V2H18.796C20.5358 2 21.94 3.28 21.94 4.866V19.134ZM2.194 8V18.66C2.194 19.4 2.8522 20 3.66398 20H18.276C19.0878 20 19.746 19.4 19.746 18.66V8H2.194ZM5.485 16C6.02253 16 6.4723 16.366 6.56445 16.824L6.582 17C6.582 17.49 6.1805 17.9 5.67807 17.984L5.485 18C5.19494 17.9974 4.91757 17.8912 4.71246 17.7042C4.50735 17.5173 4.39086 17.2644 4.388 17C4.388 16.51 4.7895 16.1 5.29193 16.016L5.485 16ZM10.97 16C11.5075 16 11.9573 16.366 12.0494 16.824L12.067 17C12.067 17.49 11.6655 17.9 11.1631 17.984L10.97 18C10.6799 17.9974 10.4026 17.8912 10.1975 17.7042C9.99235 17.5173 9.87586 17.2644 9.873 17C9.873 16.51 10.2745 16.1 10.7769 16.016L10.97 16ZM16.455 16C16.9925 16 17.4423 16.366 17.5344 16.824L17.552 17C17.552 17.49 17.1505 17.9 16.6481 17.984L16.455 18C16.1649 17.9974 15.8876 17.8912 15.6825 17.7042C15.4774 17.5173 15.3609 17.2644 15.358 17C15.358 16.51 15.7595 16.1 16.2619 16.016L16.455 16ZM5.485 13C6.02253 13 6.4723 13.366 6.56445 13.824L6.582 14C6.582 14.49 6.1805 14.9 5.67807 14.984L5.485 15C5.19494 14.9974 4.91757 14.8912 4.71246 14.7042C4.50735 14.5173 4.39086 14.2644 4.388 14C4.388 13.51 4.7895 13.1 5.29193 13.016L5.485 13ZM10.97 13C11.5075 13 11.9573 13.366 12.0494 13.824L12.067 14C12.067 14.49 11.6655 14.9 11.1631 14.984L10.97 15C10.6799 14.9974 10.4026 14.8912 10.1975 14.7042C9.99235 14.5173 9.87586 14.2644 9.873 14C9.873 13.51 10.2745 13.1 10.7769 13.016L10.97 13ZM16.455 13C16.9925 13 17.4423 13.366 17.5344 13.824L17.552 14C17.552 14.49 17.1505 14.9 16.6481 14.984L16.455 15C16.1649 14.9974 15.8876 14.8912 15.6825 14.7042C15.4774 14.5173 15.3609 14.2644 15.358 14C15.358 13.51 15.7595 13.1 16.2619 13.016L16.455 13ZM5.485 10C6.02253 10 6.4723 10.366 6.56445 10.824L6.582 11C6.582 11.49 6.1805 11.9 5.67807 11.984L5.485 12C5.19494 11.9974 4.91757 11.8912 4.71246 11.7042C4.50735 11.5173 4.39086 11.2644 4.388 11C4.388 10.51 4.7895 10.1 5.29193 10.016L5.485 10ZM10.97 10C11.5075 10 11.9573 10.366 12.0494 10.824L12.067 11C12.067 11.49 11.6655 11.9 11.1631 11.984L10.97 12C10.6799 11.9974 10.4026 11.8912 10.1975 11.7042C9.99235 11.5173 9.87586 11.2644 9.873 11C9.873 10.51 10.2745 10.1 10.7769 10.016L10.97 10ZM16.455 10C16.9925 10 17.4423 10.366 17.5344 10.824L17.552 11C17.552 11.49 17.1505 11.9 16.6481 11.984L16.455 12C16.1649 11.9974 15.8876 11.8912 15.6825 11.7042C15.4774 11.5173 15.3609 11.2644 15.358 11C15.358 10.51 15.7595 10.1 16.2619 10.016L16.455 10ZM2.194 6H19.746V5.34C19.746 4.6 19.0878 4 18.276 4H3.66398C2.8522 4 2.194 4.6 2.194 5.34V6Z" fill="white" stroke="black" stroke-opacity="0.8" stroke-width="2" mask="url(#path-1-inside-1_956_264)"/>
</svg>
