<svg width="14" height="12" viewBox="0 0 14 12" fill="none" xmlns="http://www.w3.org/2000/svg">
<path d="M1 3H7.75M10.75 3H13M6.25 9H13M1 9H3.25" stroke="#3284FF" stroke-width="1.5" stroke-linecap="round" stroke-linejoin="round"/>
<path d="M4.75 10.5C5.57843 10.5 6.25 9.82843 6.25 9C6.25 8.17157 5.57843 7.5 4.75 7.5C3.92157 7.5 3.25 8.17157 3.25 9C3.25 9.82843 3.92157 10.5 4.75 10.5Z" stroke="#3284FF" stroke-width="1.5"/>
<path d="M9.25 4.5C10.0784 4.5 10.75 3.82843 10.75 3C10.75 2.17157 10.0784 1.5 9.25 1.5C8.42157 1.5 7.75 2.17157 7.75 3C7.75 3.82843 8.42157 4.5 9.25 4.5Z" stroke="#3284FF" stroke-width="1.5"/>
</svg>
