<svg width="25" height="24" viewBox="0 0 25 24" fill="none" xmlns="http://www.w3.org/2000/svg">
<path d="M18.625 10C18.3598 10 18.1054 9.89464 17.9179 9.70711C17.7304 9.51957 17.625 9.26522 17.625 9C17.625 8.73478 17.7304 8.48043 17.9179 8.29289C18.1054 8.10536 18.3598 8 18.625 8C18.8902 8 19.1446 8.10536 19.3321 8.29289C19.5196 8.48043 19.625 8.73478 19.625 9C19.625 9.26522 19.5196 9.51957 19.3321 9.70711C19.1446 9.89464 18.8902 10 18.625 10ZM12.625 10H6.625V5H12.625M20.395 7.23L20.405 7.22L16.685 3.5L15.625 4.56L17.735 6.67C16.795 7 16.125 7.93 16.125 9C16.125 9.3283 16.1897 9.65339 16.3153 9.95671C16.4409 10.26 16.6251 10.5356 16.8572 10.7678C17.3261 11.2366 17.962 11.5 18.625 11.5C18.985 11.5 19.315 11.42 19.625 11.29V18.5C19.625 18.7652 19.5196 19.0196 19.3321 19.2071C19.1446 19.3946 18.8902 19.5 18.625 19.5C18.3598 19.5 18.1054 19.3946 17.9179 19.2071C17.7304 19.0196 17.625 18.7652 17.625 18.5V14C17.625 13.4696 17.4143 12.9609 17.0392 12.5858C16.6641 12.2107 16.1554 12 15.625 12H14.625V5C14.625 4.46957 14.4143 3.96086 14.0392 3.58579C13.6641 3.21071 13.1554 3 12.625 3H6.625C5.515 3 4.625 3.89 4.625 5V21H14.625V13.5H16.125V18.5C16.125 19.163 16.3884 19.7989 16.8572 20.2678C17.3261 20.7366 17.962 21 18.625 21C18.9533 21 19.2784 20.9353 19.5817 20.8097C19.885 20.6841 20.1606 20.4999 20.3928 20.2678C20.6249 20.0356 20.8091 19.76 20.9347 19.4567C21.0603 19.1534 21.125 18.8283 21.125 18.5V9C21.125 8.31 20.845 7.68 20.395 7.23Z" fill="white"/>
</svg>
