<svg width="25" height="24" viewBox="0 0 25 24" fill="none" xmlns="http://www.w3.org/2000/svg">
<path d="M12.4998 15.5C11.5716 15.5 10.6813 15.1313 10.025 14.4749C9.36859 13.8185 8.99984 12.9283 8.99984 12C8.99984 11.0717 9.36859 10.1815 10.025 9.52513C10.6813 8.86875 11.5716 8.5 12.4998 8.5C13.4281 8.5 14.3183 8.86875 14.9747 9.52513C15.6311 10.1815 15.9998 11.0717 15.9998 12C15.9998 12.9283 15.6311 13.8185 14.9747 14.4749C14.3183 15.1313 13.4281 15.5 12.4998 15.5ZM19.9298 12.97C19.9698 12.65 19.9998 12.33 19.9998 12C19.9998 11.67 19.9698 11.34 19.9298 11L22.0398 9.37C22.2298 9.22 22.2798 8.95 22.1598 8.73L20.1598 5.27C20.0398 5.05 19.7698 4.96 19.5498 5.05L17.0598 6.05C16.5398 5.66 15.9998 5.32 15.3698 5.07L14.9998 2.42C14.9795 2.30222 14.9182 2.19543 14.8267 2.11855C14.7351 2.04168 14.6194 1.99968 14.4998 2H10.4998C10.2498 2 10.0398 2.18 9.99984 2.42L9.62984 5.07C8.99984 5.32 8.45984 5.66 7.93984 6.05L5.44984 5.05C5.22984 4.96 4.95984 5.05 4.83984 5.27L2.83984 8.73C2.70984 8.95 2.76984 9.22 2.95984 9.37L5.06984 11C5.02984 11.34 4.99984 11.67 4.99984 12C4.99984 12.33 5.02984 12.65 5.06984 12.97L2.95984 14.63C2.76984 14.78 2.70984 15.05 2.83984 15.27L4.83984 18.73C4.95984 18.95 5.22984 19.03 5.44984 18.95L7.93984 17.94C8.45984 18.34 8.99984 18.68 9.62984 18.93L9.99984 21.58C10.0398 21.82 10.2498 22 10.4998 22H14.4998C14.7498 22 14.9598 21.82 14.9998 21.58L15.3698 18.93C15.9998 18.67 16.5398 18.34 17.0598 17.94L19.5498 18.95C19.7698 19.03 20.0398 18.95 20.1598 18.73L22.1598 15.27C22.2798 15.05 22.2298 14.78 22.0398 14.63L19.9298 12.97Z" fill="white"/>
</svg>
