<svg width="20" height="20" viewBox="0 0 20 20" fill="none" xmlns="http://www.w3.org/2000/svg">
<path d="M1 18.3451V3.05511C1 2.52468 1.21071 2.01597 1.58579 1.6409C1.96086 1.26583 2.46957 1.05511 3 1.05511H17C17.5304 1.05511 18.0391 1.26583 18.4142 1.6409C18.7893 2.01597 19 2.52468 19 3.05511V13.0551C19 13.5855 18.7893 14.0943 18.4142 14.4693C18.0391 14.8444 17.5304 15.0551 17 15.0551H5.961C5.66123 15.0552 5.36531 15.1226 5.09511 15.2524C4.82491 15.3822 4.58735 15.5711 4.4 15.8051L2.069 18.7191C1.99143 18.8163 1.88556 18.887 1.76604 18.9215C1.64652 18.9559 1.51926 18.9523 1.40186 18.9112C1.28446 18.8702 1.18273 18.7936 1.11073 18.6922C1.03874 18.5908 1.00005 18.4695 1 18.3451Z" stroke="black" stroke-width="1.5"/>
</svg>
