<svg width="22" height="22" viewBox="0 0 22 22" fill="none" xmlns="http://www.w3.org/2000/svg">
<path d="M11.3394 12.398H12.7931C12.8001 12.8345 12.9129 13.2232 13.1233 13.5577C13.4987 14.155 14.0557 14.3671 14.2637 14.4252L14.533 13.4622L14.2606 14.4243C15.9542 14.9039 17.7206 15.5872 19.0404 16.3576C19.7026 16.744 20.209 17.1275 20.538 17.4843C20.8739 17.8488 20.94 18.0902 20.94 18.2138V18.9072C20.94 19.0927 20.8606 19.3282 20.4207 19.6217C19.9601 19.929 19.2295 20.2036 18.2411 20.4221C16.2787 20.856 13.6334 21 11.002 21C8.37498 21 5.71264 20.8561 3.7322 20.4218C2.73458 20.203 1.99421 19.9278 1.52626 19.6189C1.07749 19.3227 1 19.0871 1 18.9072V18.2138C1 18.1099 1.05897 17.8788 1.39568 17.5145C1.72282 17.1605 2.22484 16.7779 2.87714 16.3894C4.17688 15.6155 5.90267 14.9183 7.51941 14.4184L7.52317 14.4172C7.76456 14.3415 8.32865 14.0946 8.73429 13.5412C9.20434 12.8999 9.33537 12.0201 8.88333 11.0062L8.79365 10.8051L8.62775 10.6602C7.16235 9.38055 6.079 7.31286 6.079 5.35271C6.079 3.87919 6.63678 2.82709 7.47521 2.12649C8.33562 1.40754 9.5662 1 10.971 1C12.3747 1 13.6093 1.40774 14.4737 2.1278C15.316 2.8294 15.876 3.88158 15.876 5.35271C15.876 7.30001 14.7885 9.36053 13.3271 10.6476L11.3394 12.398Z" stroke="black" stroke-opacity="0.8" stroke-width="2"/>
</svg>
