<svg width="16" height="16" viewBox="0 0 16 16" fill="none" xmlns="http://www.w3.org/2000/svg">
<path d="M8 14.6667C8.41287 14.6672 8.81564 14.5391 9.15233 14.3001C9.48902 14.0612 9.74289 13.7232 9.87867 13.3333H6.12133C6.25711 13.7232 6.51099 14.0612 6.84767 14.3001C7.18436 14.5391 7.58713 14.6672 8 14.6667ZM12.6667 9.72401V6.66668C12.6667 4.52201 11.21 2.71534 9.23667 2.17201C9.04133 1.68001 8.564 1.33334 8 1.33334C7.436 1.33334 6.95867 1.68001 6.76333 2.17201C4.79 2.71601 3.33333 4.52201 3.33333 6.66668V9.72401L2.19533 10.862C2.13331 10.9238 2.08411 10.9973 2.05059 11.0782C2.01707 11.1591 1.99987 11.2458 2 11.3333V12C2 12.1768 2.07024 12.3464 2.19526 12.4714C2.32029 12.5964 2.48986 12.6667 2.66667 12.6667H13.3333C13.5101 12.6667 13.6797 12.5964 13.8047 12.4714C13.9298 12.3464 14 12.1768 14 12V11.3333C14.0001 11.2458 13.9829 11.1591 13.9494 11.0782C13.9159 10.9973 13.8667 10.9238 13.8047 10.862L12.6667 9.72401Z" fill="white"/>
</svg>
