<svg width="25" height="24" viewBox="0 0 25 24" fill="none" xmlns="http://www.w3.org/2000/svg">
<g clip-path="url(#clip0_423_32)">
<path d="M4.21815 16.745C4.71315 15.787 5.75815 15.145 7.02215 15.304C8.35878 15.4666 9.68448 15.709 10.9921 16.03C13.0021 16.532 14.7631 17.497 16.0651 18.378L16.5051 18.684L16.9052 18.979L17.2632 19.255L17.5771 19.509L17.8441 19.735L18.0641 19.927C18.9071 20.678 18.3341 21.905 17.3791 21.995L17.2671 22H8.67315C6.99115 22 5.59315 21.155 4.56915 19.874C3.79515 18.907 3.72915 17.691 4.21915 16.745H4.21815ZM19.7501 2C20.6432 2 21.0282 2.84 21.2171 3.61L21.2772 3.878L21.3012 4.006C21.4452 4.803 21.5222 5.848 21.5532 6.922C21.6131 9.047 21.4911 11.524 21.2262 12.717C20.7642 14.799 20.0861 16.246 19.2741 17.118C18.4481 18.008 17.3321 18.409 16.3032 17.894C15.5141 17.5 15.0431 16.563 14.7851 15.764C14.4086 14.5994 14.4145 13.3449 14.8021 12.184C15.0121 11.552 15.3901 11.042 15.8061 10.557L16.1691 10.146C16.6111 9.651 17.0542 9.156 17.3562 8.553C17.7962 7.673 17.9161 6.71 17.9531 5.743L17.9671 5.163L17.9761 4.603L17.9822 4.465L18.0022 4.185C18.0971 3.107 18.4661 2 19.7501 2Z" fill="white"/>
</g>
<defs>
<clipPath id="clip0_423_32">
<rect width="24" height="24" fill="white" transform="translate(0.75)"/>
</clipPath>
</defs>
</svg>
