<svg width="50" height="50" viewBox="0 0 50 50" fill="none" xmlns="http://www.w3.org/2000/svg">
<g clip-path="url(#clip0_411_205)">
<path d="M41.35 16.35C39.2833 16.35 37.3875 17.075 35.9 18.2833C34.3604 17.03 32.4352 16.3471 30.45 16.35C28.3833 16.35 26.4875 17.075 25 18.2833C23.4604 17.03 21.5352 16.3471 19.55 16.35C17.4833 16.35 15.5875 17.075 14.1 18.2833C12.8308 17.2534 11.2958 16.6041 9.6728 16.4108C8.04978 16.2174 6.40518 16.4878 4.92955 17.1907C3.45391 17.8936 2.20762 19.0002 1.33507 20.3823C0.462521 21.7645 -0.000579834 23.3655 -0.000579834 25C-0.000579834 26.6345 0.462521 28.2355 1.33507 29.6177C2.20762 30.9998 3.45391 32.1064 4.92955 32.8093C6.40518 33.5122 8.04978 33.7826 9.6728 33.5892C11.2958 33.3959 12.8308 32.7466 14.1 31.7167C15.5875 32.925 17.4833 33.65 19.55 33.65C21.6167 33.65 23.5125 32.925 25 31.7167C26.4875 32.925 28.3833 33.65 30.45 33.65C32.5167 33.65 34.4125 32.925 35.9 31.7167C36.9751 32.5891 38.244 33.1908 39.6 33.471C40.9559 33.7512 42.3593 33.7018 43.6922 33.327C45.0251 32.9522 46.2486 32.2629 47.2597 31.317C48.2709 30.3711 49.0402 29.1963 49.503 27.8914C49.9659 26.5864 50.1087 25.1894 49.9194 23.8178C49.7302 22.4462 49.2145 21.1401 48.4156 20.0092C47.6167 18.8783 46.558 17.9557 45.3285 17.3189C44.099 16.6822 42.7346 16.3499 41.35 16.35ZM35.9 28.8875C35.0882 27.7539 34.6524 26.3943 34.6542 25C34.6542 23.55 35.1167 22.2083 35.9 21.1125C36.6833 22.2083 37.1458 23.55 37.1458 25C37.1458 26.45 36.6833 27.7917 35.9 28.8875ZM25 28.8875C24.1882 27.7539 23.7524 26.3943 23.7542 25C23.7542 23.55 24.2167 22.2083 25 21.1125C25.7833 22.2083 26.2458 23.55 26.2458 25C26.2458 26.45 25.7833 27.7917 25 28.8875ZM14.1 28.8875C13.2882 27.7539 12.8524 26.3943 12.8542 25C12.8542 23.55 13.3167 22.2083 14.1 21.1125C14.8833 22.2083 15.3458 23.55 15.3458 25C15.3458 26.45 14.8833 27.7917 14.1 28.8875ZM1.95417 25C1.95467 23.7506 2.30472 22.5263 2.96474 21.4654C3.62477 20.4046 4.56844 19.5496 5.68904 18.9971C6.80964 18.4446 8.06248 18.2166 9.30587 18.339C10.5493 18.4614 11.7336 18.9292 12.725 19.6896C11.5405 21.2061 10.898 23.0757 10.9 25C10.9 27.0021 11.5833 28.8458 12.725 30.3104C11.7336 31.0708 10.5493 31.5386 9.30587 31.661C8.06248 31.7834 6.80964 31.5554 5.68904 31.0029C4.56844 30.4504 3.62477 29.5954 2.96474 28.5346C2.30472 27.4737 1.95467 26.2494 1.95417 25ZM15.475 30.3104C16.6595 28.7939 17.302 26.9243 17.3 25C17.3 22.9979 16.6167 21.1542 15.475 19.6896C16.643 18.7904 18.0759 18.3032 19.55 18.3042C21.0833 18.3042 22.4958 18.8208 23.625 19.6896C22.4399 21.2058 21.7974 23.0756 21.8 25C21.8 27.0021 22.4833 28.8458 23.625 30.3104C22.457 31.2096 21.0241 31.6968 19.55 31.6958C18.0758 31.6979 16.6425 31.2106 15.475 30.3104ZM26.375 30.3104C27.5601 28.7942 28.2027 26.9244 28.2 25C28.2 22.9979 27.5167 21.1542 26.375 19.6875C27.5042 18.8208 28.9167 18.3021 30.45 18.3021C31.9833 18.3021 33.3958 18.8187 34.525 19.6875C33.3399 21.2037 32.6974 23.0735 32.7 24.9979C32.7 27 33.3833 28.8438 34.525 30.3083C33.357 31.2076 31.9241 31.6947 30.45 31.6938C28.9758 31.6974 27.5423 31.2107 26.375 30.3104ZM41.35 31.6958C39.8758 31.6979 38.4425 31.2106 37.275 30.3104C38.4592 28.7937 39.1017 26.9243 39.1 25C39.1 22.9979 38.4167 21.1542 37.275 19.6896C38.1191 19.0413 39.1056 18.6036 40.1527 18.4127C41.1998 18.2218 42.2773 18.2833 43.2959 18.5921C44.3145 18.9009 45.2448 19.448 46.0096 20.1881C46.7745 20.9283 47.3519 21.8401 47.694 22.848C48.0361 23.8558 48.133 24.9307 47.9766 25.9835C47.8203 27.0363 47.4152 28.0367 46.795 28.9017C46.1748 29.7667 45.3574 30.4713 44.4104 30.9573C43.4635 31.4432 42.4143 31.6964 41.35 31.6958Z" fill="black"/>
</g>
<defs>
<clipPath id="clip0_411_205">
<rect width="50" height="50" fill="white"/>
</clipPath>
</defs>
</svg>
