<svg width="40" height="40" viewBox="0 0 40 40" fill="none" xmlns="http://www.w3.org/2000/svg">
<g clip-path="url(#clip0_411_203)">
<path d="M20 0C31.0383 0 40 8.96167 40 20C40 31.0383 31.0383 40 20 40C8.96167 40 0 31.0383 0 20C0 8.96167 8.96167 0 20 0ZM5.40833 29.2317C6.96514 31.6932 9.1195 33.7209 11.6708 35.1258C14.2221 36.5307 17.0874 37.2671 20 37.2667C26.135 37.2667 31.5283 34.06 34.5917 29.2317L20 23.6717L5.40833 29.2317ZM23.18 18.1633L35.2917 28.0217C36.5928 25.5483 37.2707 22.7947 37.2667 20C37.2667 10.705 29.905 3.115 20.7 2.74667L23.18 18.1633ZM19.3 2.74667C10.095 3.115 2.73333 10.705 2.73333 20C2.73333 22.895 3.44667 25.6233 4.70833 28.0217L16.82 18.1633L19.3 2.74667Z" fill="black"/>
</g>
<defs>
<clipPath id="clip0_411_203">
<rect width="40" height="40" fill="white"/>
</clipPath>
</defs>
</svg>
