<svg width="50" height="50" viewBox="0 0 50 50" fill="none" xmlns="http://www.w3.org/2000/svg">
<path d="M4.16666 25C4.16666 28.8677 6.36159 32.5771 10.2686 35.312C14.1756 38.0469 19.4746 39.5833 25 39.5833C30.5253 39.5833 35.8244 38.0469 39.7314 35.312C43.6384 32.5771 45.8333 28.8677 45.8333 25C45.8333 21.1323 43.6384 17.4229 39.7314 14.688C35.8244 11.9531 30.5253 10.4167 25 10.4167C19.4746 10.4167 14.1756 11.9531 10.2686 14.688C6.36159 17.4229 4.16666 21.1323 4.16666 25Z" stroke="black" stroke-width="2.5" stroke-linecap="round" stroke-linejoin="round"/>
<path d="M18.75 25C18.75 33.0542 21.5479 39.5833 25 39.5833C28.4521 39.5833 31.25 33.0542 31.25 25C31.25 16.9458 28.4521 10.4167 25 10.4167C21.5479 10.4167 18.75 16.9458 18.75 25Z" stroke="black" stroke-width="2.5" stroke-linecap="round" stroke-linejoin="round"/>
<path d="M13.3646 12.8979C11.5146 13.9458 10.4167 15.2521 10.4167 16.6667C10.4167 20.1187 16.9458 22.9167 25 22.9167C33.0542 22.9167 39.5833 20.1187 39.5833 16.6667C39.5833 15.2542 38.4896 13.95 36.6458 12.9042" stroke="black" stroke-width="2.5" stroke-linecap="round" stroke-linejoin="round"/>
</svg>
